<svg width="210" height="45" viewBox="0 0 210 45" fill="none" xmlns="http://www.w3.org/2000/svg">
<path d="M3.075 35V11.5852H6.91875V31.7328H16.8645V35H3.075ZM36.2273 26.0953C36.2273 27.5688 36.0352 28.8767 35.6508 30.0191C35.2664 31.1616 34.7059 32.1279 33.9691 32.918C33.2324 33.6974 32.3462 34.2953 31.3105 34.7117C30.2749 35.1174 29.1057 35.3203 27.8031 35.3203C26.5859 35.3203 25.4702 35.1174 24.4559 34.7117C23.4415 34.2953 22.5607 33.6974 21.8133 32.918C21.0766 32.1279 20.5053 31.1616 20.0996 30.0191C19.6939 28.8767 19.491 27.5688 19.491 26.0953C19.491 24.1414 19.8273 22.4865 20.5 21.1305C21.1833 19.7638 22.1549 18.7228 23.4148 18.0074C24.6747 17.2921 26.1749 16.9344 27.9152 16.9344C29.5488 16.9344 30.9902 17.2921 32.2395 18.0074C33.4887 18.7228 34.4656 19.7638 35.1703 21.1305C35.875 22.4971 36.2273 24.1521 36.2273 26.0953ZM23.3668 26.0953C23.3668 27.3872 23.5216 28.4923 23.8312 29.4105C24.1516 30.3288 24.6427 31.0335 25.3047 31.5246C25.9667 32.0051 26.8208 32.2453 27.8672 32.2453C28.9135 32.2453 29.7677 32.0051 30.4297 31.5246C31.0917 31.0335 31.5775 30.3288 31.8871 29.4105C32.1967 28.4923 32.3516 27.3872 32.3516 26.0953C32.3516 24.8034 32.1967 23.709 31.8871 22.8121C31.5775 21.9046 31.0917 21.2159 30.4297 20.7461C29.7677 20.2656 28.9082 20.0254 27.8512 20.0254C26.2923 20.0254 25.1552 20.5486 24.4398 21.5949C23.7245 22.6413 23.3668 24.1414 23.3668 26.0953ZM49.5363 16.9344C49.8353 16.9344 50.1609 16.9504 50.5133 16.9824C50.8656 17.0145 51.1699 17.0572 51.4262 17.1105L51.0738 20.634C50.8496 20.5699 50.572 20.5219 50.241 20.4898C49.9207 20.4578 49.6324 20.4418 49.3762 20.4418C48.7035 20.4418 48.0629 20.5539 47.4543 20.7781C46.8457 20.9917 46.3065 21.3227 45.8367 21.7711C45.3669 22.2089 44.9986 22.7587 44.7316 23.4207C44.4647 24.0827 44.3313 24.8514 44.3313 25.727V35H40.5516V17.2707H43.4984L44.0109 20.3938H44.1871C44.5395 19.7638 44.9772 19.1872 45.5004 18.6641C46.0236 18.1409 46.6215 17.7245 47.2941 17.4148C47.9775 17.0945 48.7249 16.9344 49.5363 16.9344ZM61.7723 16.9344C63.3525 16.9344 64.7085 17.26 65.8402 17.9113C66.972 18.5626 67.8422 19.4862 68.4508 20.682C69.0594 21.8779 69.3637 23.3086 69.3637 24.9742V26.9922H57.5281C57.5708 28.7112 58.0299 30.0352 58.9055 30.9641C59.7917 31.893 61.0302 32.3574 62.6211 32.3574C63.7529 32.3574 64.7672 32.2507 65.6641 32.0371C66.5716 31.8129 67.5059 31.4872 68.4668 31.0602V34.1191C67.5806 34.5355 66.6784 34.8398 65.7602 35.032C64.8419 35.2242 63.7422 35.3203 62.4609 35.3203C60.7206 35.3203 59.1884 34.984 57.8645 34.3113C56.5512 33.628 55.5208 32.6137 54.7734 31.2684C54.0367 29.923 53.6684 28.2521 53.6684 26.2555C53.6684 24.2695 54.0047 22.5826 54.6773 21.1945C55.35 19.8065 56.2949 18.7495 57.5121 18.0234C58.7293 17.2974 60.1493 16.9344 61.7723 16.9344ZM61.7723 19.7691C60.5871 19.7691 59.6262 20.1535 58.8895 20.9223C58.1634 21.691 57.7363 22.8174 57.6082 24.3016H65.6801C65.6694 23.4154 65.5199 22.6306 65.2316 21.9473C64.954 21.2639 64.527 20.7301 63.9504 20.3457C63.3845 19.9613 62.6585 19.7691 61.7723 19.7691ZM93.6434 16.9344C95.6293 16.9344 97.1241 17.4469 98.1277 18.4719C99.1421 19.4969 99.6492 21.1411 99.6492 23.4047V35H95.8855V24.0773C95.8855 22.732 95.624 21.7177 95.1008 21.0344C94.5776 20.351 93.7822 20.0094 92.7145 20.0094C91.2197 20.0094 90.1413 20.4898 89.4793 21.4508C88.828 22.401 88.5023 23.7837 88.5023 25.5988V35H84.7387V24.0773C84.7387 23.1805 84.6212 22.4331 84.3863 21.8352C84.1621 21.2266 83.8151 20.7728 83.3453 20.4738C82.8755 20.1642 82.2829 20.0094 81.5676 20.0094C80.5319 20.0094 79.7044 20.2443 79.0852 20.7141C78.4766 21.1839 78.0388 21.8779 77.7719 22.7961C77.505 23.7036 77.3715 24.8194 77.3715 26.1434V35H73.6078V17.2707H76.5387L77.0672 19.657H77.2754C77.6384 19.0378 78.0869 18.5306 78.6207 18.1355C79.1652 17.7298 79.7685 17.4309 80.4305 17.2387C81.0925 17.0358 81.7811 16.9344 82.4965 16.9344C83.8204 16.9344 84.9362 17.1693 85.8438 17.6391C86.7513 18.0982 87.4293 18.8029 87.8777 19.7531H88.166C88.7212 18.7922 89.4953 18.0822 90.4883 17.623C91.4813 17.1639 92.5329 16.9344 93.6434 16.9344ZM113.807 35V11.5852H117.651V35H113.807ZM132.545 16.9344C134.649 16.9344 136.336 17.7031 137.606 19.2406C138.887 20.7781 139.528 23.063 139.528 26.0953C139.528 28.1026 139.229 29.7949 138.631 31.1723C138.044 32.5389 137.217 33.5746 136.149 34.2793C135.092 34.9733 133.859 35.3203 132.449 35.3203C131.552 35.3203 130.773 35.2029 130.111 34.968C129.449 34.7331 128.883 34.4288 128.413 34.0551C127.943 33.6707 127.548 33.2543 127.228 32.8059H127.004C127.057 33.2329 127.105 33.7081 127.148 34.2313C127.201 34.7438 127.228 35.2135 127.228 35.6406V42.8637H123.448V17.2707H126.523L127.052 19.7211H127.228C127.559 19.2193 127.96 18.7548 128.429 18.3277C128.91 17.9007 129.486 17.5643 130.159 17.3188C130.842 17.0625 131.638 16.9344 132.545 16.9344ZM131.536 20.0094C130.501 20.0094 129.668 20.2176 129.038 20.634C128.419 21.0397 127.965 21.6536 127.677 22.4758C127.399 23.2979 127.249 24.3283 127.228 25.5668V26.0953C127.228 27.4086 127.362 28.5243 127.629 29.4426C127.906 30.3501 128.36 31.0441 128.99 31.5246C129.63 31.9944 130.495 32.2293 131.584 32.2293C132.503 32.2293 133.261 31.9784 133.859 31.4766C134.467 30.9747 134.921 30.2594 135.22 29.3305C135.519 28.4016 135.668 27.3072 135.668 26.0473C135.668 24.1361 135.327 22.652 134.643 21.5949C133.971 20.5379 132.935 20.0094 131.536 20.0094ZM155.8 29.9391C155.8 31.1029 155.517 32.0852 154.951 32.8859C154.385 33.6867 153.558 34.2953 152.469 34.7117C151.39 35.1174 150.066 35.3203 148.497 35.3203C147.258 35.3203 146.191 35.2296 145.294 35.048C144.408 34.8772 143.569 34.6103 142.779 34.2473V30.9961C143.623 31.3911 144.568 31.7328 145.614 32.0211C146.671 32.3094 147.669 32.4535 148.609 32.4535C149.848 32.4535 150.739 32.2613 151.284 31.877C151.828 31.4819 152.1 30.9587 152.1 30.3074C152.1 29.923 151.988 29.5814 151.764 29.2824C151.551 28.9728 151.145 28.6578 150.547 28.3375C149.96 28.0065 149.095 27.6115 147.952 27.1523C146.831 26.7039 145.886 26.2555 145.118 25.807C144.349 25.3586 143.767 24.8194 143.372 24.1895C142.977 23.5488 142.779 22.732 142.779 21.7391C142.779 20.1695 143.399 18.979 144.637 18.1676C145.886 17.3454 147.536 16.9344 149.586 16.9344C150.675 16.9344 151.7 17.0465 152.661 17.2707C153.633 17.4842 154.583 17.7992 155.512 18.2156L154.327 21.0504C153.526 20.698 152.72 20.4098 151.908 20.1855C151.107 19.9507 150.291 19.8332 149.458 19.8332C148.486 19.8332 147.744 19.9827 147.232 20.2816C146.73 20.5806 146.479 21.0077 146.479 21.5629C146.479 21.9793 146.602 22.3316 146.847 22.6199C147.093 22.9082 147.515 23.1965 148.113 23.4848C148.721 23.773 149.565 24.1307 150.643 24.5578C151.7 24.9635 152.613 25.3906 153.382 25.8391C154.161 26.2768 154.759 26.816 155.175 27.4566C155.592 28.0973 155.8 28.9247 155.8 29.9391ZM175.323 17.2707V35H172.36L171.848 32.6137H171.639C171.266 33.2223 170.791 33.7294 170.214 34.1352C169.637 34.5302 168.997 34.8238 168.292 35.016C167.587 35.2189 166.845 35.3203 166.066 35.3203C164.731 35.3203 163.589 35.0961 162.639 34.6477C161.699 34.1885 160.978 33.4839 160.477 32.5336C159.975 31.5833 159.724 30.3555 159.724 28.85V17.2707H163.504V28.1453C163.504 29.5227 163.781 30.553 164.336 31.2363C164.902 31.9197 165.778 32.2613 166.963 32.2613C168.105 32.2613 169.013 32.0264 169.686 31.5566C170.358 31.0868 170.833 30.3928 171.111 29.4746C171.399 28.5564 171.543 27.4299 171.543 26.0953V17.2707H175.323ZM200.756 16.9344C202.742 16.9344 204.237 17.4469 205.24 18.4719C206.255 19.4969 206.762 21.1411 206.762 23.4047V35H202.998V24.0773C202.998 22.732 202.736 21.7177 202.213 21.0344C201.69 20.351 200.895 20.0094 199.827 20.0094C198.332 20.0094 197.254 20.4898 196.592 21.4508C195.94 22.401 195.615 23.7837 195.615 25.5988V35H191.851V24.0773C191.851 23.1805 191.734 22.4331 191.499 21.8352C191.275 21.2266 190.928 20.7728 190.458 20.4738C189.988 20.1642 189.395 20.0094 188.68 20.0094C187.644 20.0094 186.817 20.2443 186.198 20.7141C185.589 21.1839 185.151 21.8779 184.884 22.7961C184.617 23.7036 184.484 24.8194 184.484 26.1434V35H180.72V17.2707H183.651L184.18 19.657H184.388C184.751 19.0378 185.199 18.5306 185.733 18.1355C186.278 17.7298 186.881 17.4309 187.543 17.2387C188.205 17.0358 188.894 16.9344 189.609 16.9344C190.933 16.9344 192.049 17.1693 192.956 17.6391C193.864 18.0982 194.542 18.8029 194.99 19.7531H195.279C195.834 18.7922 196.608 18.0822 197.601 17.623C198.594 17.1639 199.645 16.9344 200.756 16.9344Z" fill="black"/>
<circle cx="25" cy="9" r="3" fill="#96C67F"/>
<circle cx="148" cy="9" r="3" fill="#96C67F"/>
</svg>
